<?xml version="1.0" encoding="UTF-8"?>
<svg width="341px" height="300px" viewBox="0 0 341 300" version="1.1" xmlns="http://www.w3.org/2000/svg" xmlns:xlink="http://www.w3.org/1999/xlink">
    <title>Analytics</title>
    <g id="Page-1" stroke="none" stroke-width="1" fill="none" fill-rule="evenodd">
        <g id="Branded" transform="translate(-2383.000000, -245.000000)">
            <g id="Analytics" transform="translate(2390.000000, 252.000000)">
                <path d="M231.122218,252.290287 L13,252.290287 C5.82029825,252.290287 4.43197356e-15,246.469989 0,239.290287 L0,57.5972622 L0,57.5972622" id="Path" stroke="#1D2E3B" stroke-width="13.8" stroke-linejoin="round"></path>
                <path d="M327,57.5972622 L327,239.290287 C327,246.469989 321.179702,252.290287 314,252.290287 L269.556232,252.290287 L269.556232,252.290287" id="Path" stroke="#1D2E3B" stroke-width="13.8" stroke-linejoin="round"></path>
                <path d="M69.2074393,227.818187 C73.394405,221.474704 81.3926528,217.940868 87.8663878,220.407475 C94.3401227,222.874082 101.581559,219.215009 104.037113,212.218121 C106.503558,205.221233 103.236744,197.570939 96.7630093,195.109777 C90.2892743,192.637724 86.7883394,185.139892 87.8391643,178.137558 C88.8899893,171.14067 95.1132686,165.309023 102.322037,165.194677 C109.52536,165.069441 115.264062,158.92198 115.138834,151.456818 C115.013606,144.007991 109.073451,138.051107 101.870127,138.170898 C94.6668041,138.290689 88.0678413,132.502602 86.6249987,125.315137 C86.200313,123.191568 86.2656493,120.964543 86.6576669,118.791968 C87.5941533,113.853309 90.556064,109.410148 94.8464788,107.542497 C100.971754,104.863532 103.552536,96.8974255 100.60696,89.737186 C97.6559382,82.5878365 90.0878208,78.9559887 83.6957562,81.6349529 C80.3200491,83.0452206 76.5359904,83.0343305 73.1602833,81.9398756 C70.3290452,80.6330638 67.7264839,78.5966155 65.8045088,75.9557666 C62.8208193,71.8665347 61.6665453,66.7372985 62.6901468,62.2015725 L0.827592697,62.2015725 C29.5864389,77.5947264 56.9405554,108.642397 57.6265862,149.730737 C58.3725086,194.521711 34.7480039,230.393695 0,247.5456 L69.9805851,247.5456 C64.9442479,242.459924 65.0694758,234.074548 69.2019946,227.829077 L69.2074393,227.818187 Z" id="Path" fill="#CDD1D4" fill-rule="nonzero"></path>
                <path d="M239.841774,80.1908178 C245.835769,84.4324955 247.038963,92.9543116 243.835939,99.9102233 C240.632916,106.871629 233.210471,111.624286 226.375888,110.16827 C219.535812,108.701265 212.882532,113.464911 211.498035,120.821914 C210.108043,128.173422 214.547226,135.305155 221.381808,136.77216 C228.221885,138.233671 232.864347,145.184088 232.886323,152.321315 C232.919287,159.458542 227.606553,166.238633 220.43134,167.45839 C213.272609,168.689136 208.487302,175.705486 209.761919,183.122928 C211.031042,190.545863 217.865624,195.567746 225.040837,194.331506 C232.205062,193.10076 239.682447,197.864406 242.220692,204.803834 C242.967881,206.864235 243.253571,209.100456 243.198631,211.3147 C243.022822,216.397021 240.74829,221.276049 236.770607,223.803473 C231.07329,227.424284 229.710769,235.764784 233.754381,242.456965 C235.463026,245.270098 238.155105,247.621702 241.127379,249.204089 L324.697183,249.204089 C298.106042,236.028516 273.432319,211.254261 267.394372,176.007678 C258.829168,126.052584 282.497481,82.5149495 322.016093,62.1801711 L236.803571,62.1801711 C232.996203,68.3778555 234.182916,76.1963883 239.830786,80.1908178 L239.841774,80.1908178 Z" id="Path" fill="#CDD1D4" fill-rule="nonzero"></path>
                <path d="M16,0 L311,0 C319.836556,2.97705044e-14 327,7.163444 327,16 L327,57.5972622 L327,57.5972622 L0,57.5972622 L0,16 C-1.082166e-15,7.163444 7.163444,1.623249e-15 16,0 Z" id="Rectangle" stroke="#1D2E3B" stroke-width="13.8" stroke-linejoin="round"></path>
                <circle id="Oval" fill="#1D2E3B" cx="38.2971014" cy="28.2971014" r="7.29710145"></circle>
                <circle id="Oval" fill="#1D2E3B" cx="57.5" cy="28.2971014" r="7.29710145"></circle>
                <circle id="Oval" fill="#1D2E3B" cx="76.7028986" cy="28.2971014" r="7.29710145"></circle>
                <path d="M203.212077,110.220111 C229.46419,136.450931 229.46419,178.975259 203.212077,205.20608 C190.604155,217.803322 173.505739,224.873437 155.670423,224.873437 C137.835106,224.873437 120.73669,217.791807 108.128768,205.20608 C95.5208451,192.608837 88.4396831,175.520805 88.4396831,157.707338 C88.4396831,139.89387 95.5208451,122.805838 108.128768,110.208596 C120.73669,97.6113538 137.835106,90.541238 155.670423,90.541238 C173.505739,90.541238 190.604155,97.6228686 203.212077,110.208596 L203.212077,110.220111 Z" id="Path" stroke="#1D2E3B" stroke-width="13.8" stroke-linejoin="round"></path>
                <path d="M221.415845,242.594786 L260.863099,282.010106 C266.182606,287.329965 274.760599,287.329965 280.080106,282.010106 C285.399613,276.690247 285.399613,268.134716 280.080106,262.814857 L240.632852,223.399537 L221.415845,242.594786 Z" id="Path" stroke="#1D2E3B" stroke-width="13.8" stroke-linejoin="round"></path>
                <line x1="231.030106" y1="233.002919" x2="203.212077" y2="205.20608" id="Path" stroke="#1D2E3B" stroke-width="13.8" stroke-linejoin="round"></line>
                <line x1="124.801162" y1="181.830941" x2="124.801162" y2="160.735742" id="Path" stroke="#1D2E3B" stroke-width="13.8" stroke-linejoin="round"></line>
                <line x1="145.376831" y1="181.830941" x2="145.376831" y2="139.398732" id="Path" stroke="#1D2E3B" stroke-width="13.8" stroke-linejoin="round"></line>
                <line x1="165.9525" y1="181.830941" x2="165.9525" y2="154.943775" id="Path" stroke="#1D2E3B" stroke-width="13.8" stroke-linejoin="round"></line>
                <line x1="186.539683" y1="181.830941" x2="186.539683" y2="133.595249" id="Path" stroke="#1D2E3B" stroke-width="13.8" stroke-linejoin="round"></line>
            </g>
        </g>
    </g>
</svg>