<?xml version="1.0" encoding="UTF-8"?>
<svg width="667px" height="123px" viewBox="0 0 667 123" version="1.1" xmlns="http://www.w3.org/2000/svg" xmlns:xlink="http://www.w3.org/1999/xlink">
    <title>Arrows Down</title>
    <g id="Page-1" stroke="none" stroke-width="1" fill="none" fill-rule="evenodd" opacity="0.300000012">
        <g id="Sales-funnels-original-(PNGs)" transform="translate(-668.000000, -3547.000000)" fill="#338EEF" fill-rule="nonzero">
            <g id="Arrows-Down" transform="translate(668.000000, 3547.000000)">
                <circle id="Oval" cx="8" cy="8" r="8"></circle>
                <circle id="Oval" cx="28" cy="28" r="8"></circle>
                <circle id="Oval" cx="50" cy="50" r="8"></circle>
                <circle id="Oval" cx="70" cy="70" r="8"></circle>
                <circle id="Oval" cx="89" cy="50" r="8"></circle>
                <circle id="Oval" cx="108" cy="28" r="8"></circle>
                <circle id="Oval" cx="131" cy="8" r="8"></circle>
                <circle id="Oval" cx="131" cy="53" r="8"></circle>
                <circle id="Oval" cx="8" cy="53" r="8"></circle>
                <circle id="Oval" cx="28" cy="73" r="8"></circle>
                <circle id="Oval" cx="50" cy="95" r="8"></circle>
                <circle id="Oval" cx="70" cy="115" r="8"></circle>
                <circle id="Oval" cx="89" cy="95" r="8"></circle>
                <circle id="Oval" cx="108" cy="73" r="8"></circle>
                <circle id="Oval" cx="274" cy="8" r="8"></circle>
                <circle id="Oval" cx="293" cy="28" r="8"></circle>
                <circle id="Oval" cx="312" cy="50" r="8"></circle>
                <circle id="Oval" cx="335" cy="70" r="8"></circle>
                <circle id="Oval" cx="354" cy="50" r="8"></circle>
                <circle id="Oval" cx="374" cy="28" r="8"></circle>
                <circle id="Oval" cx="397" cy="8" r="8"></circle>
                <circle id="Oval" cx="397" cy="53" r="8"></circle>
                <circle id="Oval" cx="274" cy="53" r="8"></circle>
                <circle id="Oval" cx="293" cy="73" r="8"></circle>
                <circle id="Oval" cx="312" cy="95" r="8"></circle>
                <circle id="Oval" cx="335" cy="115" r="8"></circle>
                <circle id="Oval" cx="354" cy="95" r="8"></circle>
                <circle id="Oval" cx="374" cy="73" r="8"></circle>
                <circle id="Oval" cx="536" cy="8" r="8"></circle>
                <circle id="Oval" cx="558" cy="28" r="8"></circle>
                <circle id="Oval" cx="578" cy="50" r="8"></circle>
                <circle id="Oval" cx="597" cy="70" r="8"></circle>
                <circle id="Oval" cx="617" cy="50" r="8"></circle>
                <circle id="Oval" cx="639" cy="28" r="8"></circle>
                <circle id="Oval" cx="659" cy="8" r="8"></circle>
                <circle id="Oval" cx="659" cy="53" r="8"></circle>
                <circle id="Oval" cx="536" cy="53" r="8"></circle>
                <circle id="Oval" cx="558" cy="73" r="8"></circle>
                <circle id="Oval" cx="578" cy="95" r="8"></circle>
                <circle id="Oval" cx="597" cy="115" r="8"></circle>
                <circle id="Oval" cx="617" cy="95" r="8"></circle>
                <circle id="Oval" cx="639" cy="73" r="8"></circle>
            </g>
        </g>
    </g>
</svg>