<?xml version="1.0" encoding="UTF-8"?><svg id="Layer_2" xmlns="http://www.w3.org/2000/svg" viewBox="0 0 201.07 31.12"><defs><style>.cls-1{fill:#e64e39;}.cls-2{fill:#fff;}.cls-3{fill:#06283d;}.cls-4{fill:#2a9ddd;}</style></defs><g id="Layer_1-2"><g><path class="cls-3" d="M59.58,9.78c.79-.02,1.57,.1,2.32,.35,.59,.2,1.13,.53,1.58,.96,.23,.23,.36,.53,.37,.86,.02,.32-.05,.64-.22,.91-.18,.27-.45,.47-.76,.55-.43,.09-.88,.02-1.25-.21-.28-.15-.57-.28-.87-.38-.37-.12-.77-.18-1.16-.17-.78-.06-1.53,.24-2.06,.82-.49,.63-.73,1.42-.69,2.21v1.9c-.04,.8,.2,1.58,.69,2.21,.52,.57,1.28,.88,2.06,.82,.42,0,.83-.04,1.24-.14,.3-.07,.6-.18,.87-.33,.31-.18,.68-.25,1.04-.2,.3,.05,.58,.2,.78,.42,.19,.22,.31,.5,.34,.79,.02,.34-.08,.68-.3,.94-.41,.51-.97,.87-1.59,1.04-.77,.24-1.58,.36-2.38,.35-.91,.02-1.81-.13-2.66-.45-.69-.27-1.32-.69-1.82-1.24-.47-.53-.83-1.15-1.04-1.83-.22-.72-.34-1.46-.33-2.21v-2.21h.02c0-.76,.11-1.51,.33-2.22,.21-.68,.57-1.3,1.04-1.83,.5-.55,1.11-.98,1.8-1.25,.85-.32,1.75-.47,2.66-.45Z"/><path class="cls-3" d="M69.49,5.68c.25,.21,.4,.53,.41,.86v15.71c0,.33-.16,.64-.41,.86-.3,.27-.7,.41-1.11,.38-.42,.02-.82-.12-1.15-.38-.27-.2-.43-.52-.44-.86V6.54c0-.34,.17-.65,.44-.86,.27-.23,.61-.36,.97-.38h.18c.4-.02,.8,.11,1.11,.38Z"/><path class="cls-3" d="M76.79,10.16c.25,.21,.4,.53,.41,.86v11.23c0,.33-.16,.64-.41,.86-.3,.27-.7,.41-1.11,.38-.42,.02-.82-.12-1.15-.38-.27-.2-.43-.52-.44-.86V11.02c0-.34,.17-.65,.44-.86,.27-.23,.61-.36,.97-.38h.18c.4-.02,.8,.11,1.11,.38Zm0-4.72c.25,.21,.4,.52,.41,.85v.63c0,.33-.16,.64-.41,.85-.31,.27-.7,.4-1.11,.38-.42,.02-.82-.11-1.15-.38-.27-.2-.43-.52-.44-.85v-.63c0-.34,.17-.65,.44-.85,.27-.23,.61-.36,.97-.38h.18c.4-.02,.8,.11,1.11,.38Z"/><path class="cls-3" d="M86.59,9.79c.79-.02,1.57,.1,2.32,.35,.59,.2,1.13,.53,1.58,.96,.23,.23,.36,.53,.37,.86,.02,.32-.05,.64-.22,.91-.18,.27-.45,.47-.76,.55-.43,.09-.88,.02-1.25-.21-.28-.15-.57-.28-.87-.38-.37-.12-.77-.18-1.16-.17-.78-.06-1.53,.24-2.06,.82-.49,.63-.73,1.42-.69,2.21v1.9c-.04,.8,.2,1.58,.69,2.21,.52,.57,1.28,.88,2.06,.82,.42,0,.83-.04,1.24-.14,.3-.07,.59-.18,.87-.33,.31-.18,.68-.25,1.04-.2,.3,.05,.58,.2,.78,.42,.19,.22,.31,.5,.34,.79,.03,.34-.08,.67-.29,.93-.4,.5-.96,.86-1.58,1.03-.77,.24-1.58,.36-2.38,.35-.91,.02-1.81-.13-2.66-.45-.69-.27-1.32-.69-1.82-1.24-.47-.53-.83-1.15-1.04-1.83-.22-.72-.34-1.46-.33-2.21v-2.21l-.03-.02c0-.75,.11-1.5,.33-2.21,.21-.68,.57-1.3,1.04-1.83,.5-.55,1.13-.97,1.82-1.24,.85-.32,1.75-.47,2.66-.45Z"/><path class="cls-3" d="M96.67,5.68c.25,.21,.4,.53,.41,.86V14.79h1.21l3.82-4.64c.28-.24,.64-.37,1-.35,.42,0,.81,.16,1.11,.46,.28,.29,.42,.7,.35,1.11-.04,.35-.2,.68-.46,.92l-3.4,3.75,4.19,5.24c.21,.26,.29,.6,.21,.92-.1,.41-.36,.76-.71,.97-.32,.24-.71,.34-1.11,.29-.33-.03-.64-.19-.86-.45l-4.2-5.51h-1.16v4.75c0,.33-.16,.64-.41,.86-.3,.27-.7,.41-1.11,.38-.42,.02-.82-.12-1.15-.38-.27-.2-.43-.52-.44-.86V6.54c0-.34,.17-.65,.44-.86,.27-.23,.61-.36,.97-.38h.18c.4-.02,.8,.11,1.11,.38Z"/><path class="cls-3" d="M120.04,4.77c.37,0,.74,.03,1.11,.11,.33,.06,.64,.17,.93,.33,.25,.14,.47,.32,.65,.55,.16,.2,.24,.46,.24,.71,.02,.34-.09,.66-.3,.92-.24,.24-.57,.37-.91,.34-.27,0-.54-.03-.8-.11-.3-.08-.6-.11-.91-.11-.46-.05-.92,.09-1.29,.37-.28,.36-.42,.81-.37,1.27v.9h2.03c.3,0,.58,.12,.79,.33,.23,.22,.36,.54,.34,.86,.02,.34-.11,.67-.34,.91-.21,.21-.49,.33-.79,.33h-2.04v9.75c0,.33-.16,.64-.41,.86-.29,.26-.68,.4-1.07,.38-.42,.03-.84-.11-1.16-.38-.26-.21-.41-.52-.42-.86V12.47h-.92c-.3,0-.58-.12-.79-.33-.24-.24-.36-.57-.34-.91-.01-.32,.11-.63,.34-.86,.21-.21,.49-.33,.79-.33h.92v-.79c0-1.65,.4-2.81,1.2-3.48,.8-.67,1.97-1,3.52-1Z"/><path class="cls-3" d="M126.84,10.18c.25,.21,.4,.53,.41,.86v6.75c-.07,.79,.22,1.58,.79,2.14,.55,.47,1.25,.71,1.98,.69,.72,.03,1.42-.22,1.96-.69,.56-.56,.85-1.34,.78-2.14v-6.75c0-.33,.16-.65,.42-.86,.31-.26,.7-.4,1.11-.38,.4-.01,.8,.12,1.11,.38,.27,.2,.44,.52,.45,.86v6.64c0,.78-.12,1.56-.37,2.31-.47,1.4-1.54,2.52-2.92,3.04-.81,.31-1.68,.47-2.54,.45-.87,.02-1.73-.13-2.54-.44-1.39-.52-2.47-1.65-2.94-3.06-.25-.74-.38-1.52-.37-2.31v-6.64c0-.34,.17-.65,.44-.86,.27-.23,.61-.36,.97-.38h.18c.4-.02,.8,.11,1.11,.38Z"/><path class="cls-3" d="M145.41,9.75c.86-.02,1.73,.12,2.54,.39,.68,.23,1.31,.61,1.83,1.11,.5,.49,.88,1.09,1.11,1.75,.25,.73,.38,1.5,.37,2.27v6.97c0,.34-.18,.66-.45,.86-.31,.26-.7,.39-1.11,.38-.4,.02-.8-.12-1.11-.38-.26-.21-.41-.52-.42-.86v-6.77c.07-.79-.22-1.57-.78-2.14-.55-.47-1.25-.71-1.96-.69-.72-.02-1.42,.22-1.98,.69-.57,.56-.86,1.34-.79,2.14v6.77c0,.33-.16,.64-.41,.86-.3,.27-.7,.41-1.11,.38-.42,.02-.82-.12-1.15-.38-.27-.2-.43-.52-.44-.86v-6.67c0-.78,.12-1.56,.37-2.31,.47-1.41,1.55-2.54,2.94-3.06,.81-.31,1.66-.47,2.53-.46Z"/><path class="cls-3" d="M160.8,9.75c.86-.02,1.73,.12,2.54,.39,.68,.23,1.31,.61,1.83,1.11,.5,.49,.88,1.09,1.11,1.75,.25,.73,.38,1.5,.37,2.27v6.97c0,.34-.18,.66-.45,.86-.31,.26-.7,.39-1.11,.38-.4,.02-.8-.12-1.11-.38-.26-.21-.41-.52-.42-.86v-6.77c.07-.79-.22-1.57-.78-2.14-.55-.47-1.25-.71-1.96-.69-.72-.02-1.42,.22-1.98,.69-.57,.56-.86,1.34-.79,2.14v6.77c0,.33-.16,.64-.41,.86-.3,.27-.7,.41-1.11,.38-.42,.02-.82-.12-1.15-.38-.27-.2-.43-.52-.44-.86v-6.67c0-.78,.12-1.56,.37-2.31,.47-1.41,1.55-2.54,2.94-3.06,.81-.31,1.66-.47,2.53-.46Z"/><path class="cls-3" d="M178.24,10.27c1.29,.57,2.27,1.66,2.72,2.99,.2,.6,.3,1.23,.3,1.87,.06,.62-.11,1.24-.48,1.74-.44,.38-1.01,.56-1.58,.5h-6.25v.68c-.03,.76,.25,1.49,.78,2.03,.6,.54,1.4,.82,2.21,.76,.44,0,.87-.03,1.31-.09,.32-.04,.64-.12,.93-.25l.71-.37c.19-.11,.41-.17,.63-.18,.31-.02,.6,.1,.82,.32,.2,.23,.31,.52,.32,.82-.02,.32-.15,.62-.37,.84-.29,.31-.63,.57-1,.76-.47,.24-.97,.43-1.49,.55-.6,.15-1.21,.23-1.83,.22-.84,.01-1.67-.13-2.45-.42-.7-.25-1.34-.63-1.91-1.11-.54-.46-.97-1.03-1.28-1.67-.3-.64-.45-1.34-.45-2.04v-2.8c0-1.49,.6-2.93,1.66-3.98,.52-.52,1.14-.93,1.82-1.21,.73-.3,1.52-.46,2.32-.45,.88-.02,1.75,.14,2.56,.49Zm-4.49,2.8c-.49,.55-.77,1.26-.8,1.99h5.38v-.38c.03-.66-.25-1.29-.75-1.71-.55-.44-1.24-.66-1.94-.63-.71-.04-1.39,.23-1.89,.74Z"/><path class="cls-3" d="M187.45,5.68c.25,.21,.4,.53,.41,.86v15.71c0,.33-.16,.64-.41,.86-.3,.27-.7,.41-1.11,.38-.42,.02-.82-.12-1.15-.38-.27-.2-.43-.52-.44-.86V6.54c0-.34,.17-.65,.44-.86,.27-.23,.61-.36,.97-.38h.18c.4-.02,.8,.11,1.11,.38Z"/><path class="cls-3" d="M196.51,9.75c.59,0,1.17,.05,1.74,.17,.42,.09,.84,.23,1.23,.41,.28,.13,.54,.3,.76,.51,.16,.15,.29,.32,.38,.51,.13,.27,.17,.58,.13,.88-.01,.3-.16,.58-.41,.75-.28,.21-.63,.29-.97,.22-.29-.07-.56-.19-.82-.33-.14-.07-.36-.17-.67-.3-.44-.15-.91-.22-1.38-.2-.46-.03-.92,.11-1.28,.41-.28,.26-.44,.63-.44,1.01,0,.33,.17,.63,.46,.78,.37,.21,.76,.38,1.16,.5l1.52,.48c.54,.16,1.05,.4,1.52,.71,1.08,.7,1.7,1.92,1.62,3.2,.05,1.12-.43,2.2-1.29,2.93-1.01,.78-2.26,1.17-3.53,1.11-.53,0-1.07-.05-1.59-.14-.49-.09-.96-.23-1.42-.41-.39-.16-.76-.36-1.11-.61-.29-.2-.54-.46-.72-.76-.06-.12-.09-.26-.11-.39-.02-.16,0-.32,.04-.48,.04-.16,.12-.31,.21-.45,.1-.14,.24-.25,.41-.32,.2-.1,.42-.15,.65-.16,.17,0,.33,.03,.49,.09,.14,.06,.27,.14,.39,.24l.37,.28c.72,.43,1.56,.63,2.4,.55,.48,.02,.95-.11,1.36-.37,.32-.22,.51-.57,.51-.96,0-.38-.17-.75-.48-.98-.37-.26-.77-.46-1.2-.6-.48-.17-1-.33-1.55-.5-.54-.16-1.07-.39-1.55-.69-.47-.28-.88-.66-1.2-1.11-.34-.55-.51-1.2-.48-1.85-.04-1.14,.43-2.24,1.29-2.99,1-.82,2.27-1.23,3.56-1.16Z"/><g><path class="cls-4" d="M11.9,6.61c-.11,.57,.02,1.15,.37,1.61,.23,.3,.53,.55,.87,.7,.4,.14,.84,.12,1.23-.03,.39-.13,.82-.11,1.19,.07s.65,.5,.79,.89c.37,.77,.07,1.69-.68,2.09-.51,.26-.87,.74-.96,1.31-.05,.25-.05,.51,0,.76,.17,.86,.91,1.49,1.79,1.51,.87-.01,1.6,.68,1.61,1.56,.01,.87-.68,1.6-1.56,1.61-.87,.02-1.61,.66-1.74,1.53-.15,.82,.28,1.64,1.05,1.99,.79,.32,1.17,1.21,.87,2.01-.12,.38-.39,.7-.75,.88-.36,.18-.77,.21-1.15,.08-.84-.23-1.73,.12-2.18,.87-.51,.7-.47,1.65,.09,2.31H4.53c4.08-2.01,6.85-6.23,6.76-11.47-.08-4.83-3.29-8.47-6.66-10.28h7.27Z"/><path class="cls-3" d="M35.18,0c1.18,0,2.13,.96,2.13,2.13V28.99c0,1.18-.96,2.13-2.13,2.13H2.13c-1.18,0-2.13-.96-2.13-2.13V2.13C0,.96,.96,0,2.13,0H35.18Zm-.61,6.61H2.72V28.36h31.85V6.61Zm-1.41-4.56c-.75,0-1.36,.61-1.36,1.36s.61,1.36,1.36,1.36,1.36-.61,1.36-1.36-.61-1.36-1.36-1.36Zm-4.86,0c-.36,0-.71,.14-.96,.4s-.4,.6-.4,.96c0,.75,.61,1.36,1.36,1.36s1.36-.61,1.36-1.36-.61-1.36-1.36-1.36Zm-4.86,0c-.75,0-1.36,.61-1.36,1.36s.61,1.36,1.36,1.36,1.36-.61,1.36-1.36-.61-1.36-1.36-1.36Z"/><path class="cls-1" d="M32.47,6.61c-4.6,2.36-7.34,7.43-6.35,13.23,.7,4.1,3.57,6.98,6.66,8.51h-9.71c-.36-.18-.66-.45-.87-.79-.49-.7-.34-1.67,.35-2.18,.47-.33,.75-.88,.75-1.45,0-.26-.03-.51-.11-.75-.3-.82-1.13-1.33-2-1.22-.86,.15-1.68-.43-1.83-1.29-.15-.86,.43-1.68,1.29-1.83,.83-.17,1.44-.89,1.45-1.75,.02-.84-.53-1.58-1.34-1.81-.82-.21-1.33-1.03-1.15-1.85,.06-.4,.28-.76,.61-.99s.74-.32,1.14-.25c.87,.1,1.7-.38,2.03-1.19,.41-.78,.22-1.73-.46-2.29-.66-.5-.81-1.42-.35-2.1h9.9Z"/></g><g><circle class="cls-1" cx="38.95" cy="17.48" r="9.01"/><g><path class="cls-2" d="M34.79,16.19v-.7c0-.94,.51-1.34,1.47-1.34h.02c.96,0,1.47,.4,1.47,1.34v.85c0,.74-.55,1.12-1.19,1.69-.59,.52-.94,.86-.94,1.3v.67h1.82c.2,0,.31,.1,.31,.31v.12c0,.19-.1,.31-.31,.31h-2.36c-.2,0-.31-.11-.31-.31v-1.12c0-.83,.63-1.34,1.31-1.93,.55-.47,.82-.7,.82-1.09v-.69c0-.53-.24-.72-.65-.72s-.62,.19-.62,.72v.59c0,.2-.11,.31-.32,.31h-.21c-.2,0-.31-.11-.31-.31Z"/><path class="cls-2" d="M39.25,20.02v.41c0,.19-.1,.31-.31,.31h-.26c-.2,0-.31-.11-.31-.31v-.41c0-.2,.11-.31,.31-.31h.26c.2,0,.31,.11,.31,.31Z"/><path class="cls-2" d="M43.13,15.53v3.9c0,.96-.56,1.38-1.5,1.38h-.07c-.95,0-1.5-.42-1.5-1.38v-3.9c0-.96,.56-1.38,1.5-1.38h.07c.95,0,1.5,.42,1.5,1.38Zm-1.54-.6c-.46,0-.7,.2-.7,.77v3.57c0,.58,.24,.77,.7,.77s.7-.2,.7-.77v-3.57c0-.58-.24-.77-.7-.77Z"/></g></g></g></g></svg>