<?xml version="1.0" encoding="UTF-8"?>
<svg width="315px" height="379px" viewBox="0 0 315 379" version="1.1" xmlns="http://www.w3.org/2000/svg" xmlns:xlink="http://www.w3.org/1999/xlink">
    <title>Drag and drop</title>
    <g id="Page-1" stroke="none" stroke-width="1" fill="none" fill-rule="evenodd">
        <g id="Branded" transform="translate(-742.000000, -205.000000)">
            <g id="Drag-and-drop" transform="translate(749.000000, 214.000000)">
                <path d="M216.947949,207.011095 C221.590009,210.29514 222.521824,216.893007 220.041237,222.2785 C217.56065,227.668247 211.812325,231.347909 206.519271,230.220614 C201.221962,229.084811 196.069319,232.77298 194.997092,238.469011 C193.920611,244.160788 197.358543,249.682407 202.651597,250.81821 C207.948906,251.94976 211.544269,257.330999 211.561288,262.856872 C211.586817,268.382745 207.472361,273.632112 201.915505,274.576488 C196.371414,275.529371 192.665425,280.961658 193.652554,286.704482 C194.635428,292.45156 199.928483,296.339665 205.485338,295.382528 C211.033685,294.429644 216.824558,298.117814 218.790306,303.490545 C219.368968,305.085774 219.590221,306.817129 219.547673,308.531469 C219.411517,312.466367 217.650002,316.243869 214.569479,318.200684 C210.157182,321.004033 209.101975,327.46152 212.233557,332.642823 C213.55682,334.820843 215.641705,336.641531 217.943588,337.866667 L282.664364,337.866667 C262.07081,327.665709 242.962204,308.484675 238.286105,281.195625 C231.652768,242.518766 249.982734,208.810513 280.58799,193.066667 L214.595008,193.066667 C211.646385,197.865116 212.565437,203.918478 216.939439,207.011095 L216.947949,207.011095 Z" id="Path" fill="#CDD1D4" fill-rule="nonzero"></path>
                <path d="M40.3480899,149.346106 C42.7891002,145.648888 47.4520963,143.589237 51.2262981,145.026867 C55.0004999,146.464498 59.2222731,144.331854 60.6538669,140.253807 C62.0918092,136.17576 60.1872499,131.716884 56.4130481,130.282427 C52.6388463,128.841623 50.5977935,124.471607 51.2104268,120.390387 C51.82306,116.31234 55.4512456,112.913439 59.6539733,112.846794 C63.8535266,112.773801 67.1992026,109.190833 67.1261945,104.839858 C67.0531863,100.498404 63.5900626,97.0265109 59.3905092,97.0963296 C55.1909558,97.1661483 51.3437459,93.7926356 50.5025656,89.6035136 C50.2549728,88.3658185 50.293064,87.0678254 50.5216111,85.8015681 C51.0675848,82.9231335 52.7943853,80.3334944 55.2957066,79.2449574 C58.8667554,77.6835574 60.3713573,73.0406138 58.6540796,68.8673597 C56.9336276,64.7004528 52.5213985,62.5836767 48.7948107,64.1450767 C46.826766,64.9670333 44.6206514,64.9606861 42.6526067,64.3227971 C41.0019886,63.5611385 39.4846897,62.3742206 38.3641739,60.8350356 C36.6246764,58.4516791 35.9517321,55.4621693 36.548494,52.8185794 L0.48248837,52.8185794 C17.2489592,61.7902824 33.1964696,79.88602 33.596427,103.833834 C34.0313014,129.939681 20.258163,150.847208 0,160.843976 L40.7988356,160.843976 C37.86264,157.879855 37.9356481,152.992546 40.3449157,149.352453 L40.3480899,149.346106 Z" id="Path" fill="#CDD1D4" fill-rule="nonzero"></path>
                <path d="M266.814426,160.888889 L298.999083,160.888889 L298.999083,17 C298.999083,7.61115925 291.387924,-5.27741574e-15 281.999083,0 L18.2909994,0 C8.90215869,-1.82801161e-15 1.29099944,7.61115925 1.29099944,17 L1.29099944,160.888889 L1.29099944,160.888889 L65.6603149,160.888889 C76.6835602,160.888889 76.8444835,158.073333 76.8444835,152.04 C76.8444835,145.443556 66.3844697,136.996889 72.8214013,125.171556 C76.3617136,118.655556 86.2584959,114.955111 96.3162014,115.196444 C106.373907,115.035556 116.270689,118.816444 119.811002,125.252 C126.328395,137.077333 115.868381,145.524 115.868381,152.120444 C115.868381,158.153778 119.086847,160.888889 130.110092,160.888889 L170.340914,160.888889" id="Path" stroke="#1D2E3B" stroke-width="16.1"></path>
                <circle id="Oval" fill="#1D2E3B" cx="34.2971014" cy="24.2971014" r="7.29710145"></circle>
                <circle id="Oval" fill="#1D2E3B" cx="53.5" cy="24.2971014" r="7.29710145"></circle>
                <circle id="Oval" fill="#1D2E3B" cx="72.7028986" cy="24.2971014" r="7.29710145"></circle>
                <path d="M162.214288,337.866667 L299,337.866667 L299,297.644444 C299,287.428 293.93,282.199111 288.297685,282.118667 C282.1826,282.118667 274.37782,291.852444 263.354575,285.819111 C257.319952,282.520889 253.860101,273.350222 254.021024,264.018667 C253.860101,254.687111 257.319952,245.516444 263.354575,242.218222 C274.297359,236.265333 282.1826,245.999111 288.297685,245.999111 C293.849538,245.999111 299.079545,243.585778 299,233.288889 L299,193.066667 L250.722097,193.066667 C240.503468,193.066667 238.894235,190.572889 238.894235,185.022222 C238.894235,178.908444 248.630094,173.196889 242.595471,162.256444 C239.296543,156.223111 230.043454,152.764 220.709904,152.924889 C211.376353,152.764 202.203725,156.223111 198.904798,162.176 C192.950636,173.116444 202.686495,178.908444 202.686495,185.022222 C202.686495,190.572889 196.57141,193.147111 186.352781,193.147111 L162.214288,193.147111" id="Path" stroke="#1D2E3B" stroke-width="16.1"></path>
                <path d="M1.29099944,362 L1.29099944,193.066667 L33.4756572,193.066667 C44.4989024,193.066667 45.062134,196.043111 45.062134,201.996 C45.062134,208.592444 34.6021202,217.039111 41.0390517,228.864444 C44.5793641,235.380444 54.4761463,239.080889 64.5338519,238.839556 C74.5915574,239.000444 84.4883397,235.219556 88.028652,228.784 C94.5460452,216.958667 84.0860315,208.512 84.0860315,201.915556 C84.0860315,195.882222 85.1320328,193.308 96.1552781,193.308 L138.156256,192.986222 L138.156256,233.208444 C138.156256,244.229333 141.294261,246.16 147.248422,246.16 C153.846277,246.16 162.29475,235.702222 174.122611,242.137778 C180.559543,245.677333 184.34124,255.572 184.099855,265.627556 C184.260779,275.683111 180.479081,285.577778 174.04215,289.117333 C162.214288,295.633333 153.765815,285.175556 147.248422,285.175556 C141.213799,285.175556 138.236718,286.543111 138.236718,297.564 L138.236718,361.919556 L1.29099944,361.919556 L1.29099944,362 Z" id="Path" stroke="#1D2E3B" stroke-width="16.1"></path>
                <line x1="1.29099944" y1="48.2666667" x2="298.999083" y2="48.2666667" id="Path" stroke="#1D2E3B" stroke-width="16.1"></line>
            </g>
        </g>
    </g>
</svg>