<?xml version="1.0" encoding="UTF-8"?>
<svg width="415px" height="397px" viewBox="0 0 415 397" version="1.1" xmlns="http://www.w3.org/2000/svg" xmlns:xlink="http://www.w3.org/1999/xlink">
    <title>Group 2</title>
    <g id="Page-1" stroke="none" stroke-width="1" fill="none" fill-rule="evenodd">
        <g id="Branded" transform="translate(-643.000000, -798.000000)">
            <g id="Group-2" transform="translate(653.000000, 802.000000)">
                <path d="M8,70 L305.594484,70 L305.594484,70 L387,70 C391.418278,70 395,73.581722 395,78 L395,329 C395,333.418278 391.418278,337 387,337 L8,337 C3.581722,337 -3.47095419e-16,333.418278 0,329 L0,78 C-5.41083001e-16,73.581722 3.581722,70 8,70 Z" id="Rectangle" stroke="#1D2E3B" stroke-width="20"></path>
                <rect id="Rectangle" fill="#1D2E3B" x="68" y="370" width="258" height="23" rx="11.5"></rect>
                <rect id="Rectangle" fill="#1D2E3B" x="256" y="343" width="24" height="28"></rect>
                <rect id="Rectangle" fill="#1D2E3B" x="114" y="343" width="24" height="28"></rect>
                <path d="M118.143107,203 L42.8568934,203 C40.1738163,203 38,205.177038 38,207.864092 L38,269.134451 C38,271.821505 40.1738163,274 42.8568934,274 L118.143107,274 C120.826184,274 123,271.822962 123,269.134451 L123,207.864092 C123,205.177038 120.826184,203 118.143107,203 Z M113.536478,207.651342 C115.247595,207.651342 116.635694,209.041499 116.635694,210.756609 C116.635694,212.471718 115.247595,213.861875 113.536478,213.861875 C111.825362,213.861875 110.435807,212.471718 110.435807,210.756609 C110.435807,209.041499 111.823907,207.651342 113.536478,207.651342 Z M102.476788,207.651342 C104.189359,207.651342 105.577459,209.041499 105.577459,210.756609 C105.577459,212.471718 104.189359,213.861875 102.476788,213.861875 C100.764217,213.861875 99.377572,212.471718 99.377572,210.756609 C99.377572,209.041499 100.765672,207.651342 102.476788,207.651342 Z M91.4185525,207.651342 C93.1296689,207.651342 94.5192235,209.041499 94.5192235,210.756609 C94.5192235,212.471718 93.131124,213.861875 91.4185525,213.861875 C89.705981,213.861875 88.3178815,212.471718 88.3178815,210.756609 C88.3178815,209.041499 89.705981,207.651342 91.4185525,207.651342 Z M116.760827,267.678721 L44.2406279,267.678721 L44.2406279,218.077518 L116.759372,218.077518 L116.759372,267.677264 L116.760827,267.678721 Z" id="Shape" fill="#1D2E3B" fill-rule="nonzero"></path>
                <path d="M67.3905053,262.957079 C68.5031084,261.273481 70.6284842,260.33558 72.348751,260.990232 C74.0690177,261.644884 75.9932859,260.673745 76.6458008,258.816729 C77.3012094,256.959713 76.4331186,254.92928 74.7128518,254.276073 C72.9925851,253.619975 72.062281,251.630006 72.3415169,249.771545 C72.6207528,247.914529 74.2744659,246.366775 76.1900531,246.336427 C78.1041935,246.303189 79.6291398,244.671616 79.595863,242.690318 C79.5625862,240.713355 77.9841076,239.132363 76.0699672,239.164156 C74.1558268,239.195949 72.4022833,237.659756 72.0188765,235.75216 C71.9060246,235.188553 71.9233865,234.597487 72.0275574,234.020873 C72.2764101,232.710123 73.0634791,231.530882 74.2035718,231.035196 C75.8312422,230.324183 76.517034,228.209931 75.7343054,226.309561 C74.95013,224.412081 72.9390528,223.448167 71.2404883,224.15918 C70.3434611,224.533473 69.3379225,224.530583 68.4408952,224.240108 C67.6885498,223.893273 66.9969707,223.352787 66.4862439,222.65189 C65.6933876,221.566584 65.3866621,220.205254 65.658664,219.001445 L49.2199164,219.001445 C56.8620097,223.08688 64.130824,231.327116 64.3131231,242.232206 C64.5113372,254.119997 58.2335933,263.640634 49,268.192852 L67.5959534,268.192852 C66.2576467,266.843083 66.2909235,264.617555 67.3890584,262.95997 L67.3905053,262.957079 Z" id="Path" fill="#1D2E3B" fill-rule="nonzero"></path>
                <path d="M90.653894,223.737196 C92.2323726,224.852851 92.5492257,227.094276 91.7057308,228.923834 C90.8622358,230.754837 88.9075845,232.004891 87.1077427,231.621926 C85.3064542,231.236072 83.5543574,232.489015 83.1897592,234.424069 C82.8237143,236.357678 83.9927433,238.23348 85.7925851,238.619335 C87.5938736,239.003744 88.8164349,240.831857 88.8222222,242.709105 C88.8309031,244.586353 87.43183,246.369666 85.5422855,246.690489 C83.6570815,247.014202 82.3969029,248.859656 82.7325647,250.810607 C83.0667797,252.763002 84.8666215,254.083868 86.7561659,253.75871 C88.6428168,253.434996 90.6119362,254.68794 91.2803662,256.513162 C91.4771335,257.055093 91.552368,257.643269 91.5378999,258.225663 C91.4916017,259.562426 90.892619,260.845717 89.8451226,261.510486 C88.3447722,262.462838 87.9859613,264.656574 89.0508195,266.416765 C89.5007799,267.156681 90.2097208,267.775204 90.9924494,268.191407 L113,268.191407 C105.9974,264.725941 99.49974,258.209767 97.9096869,248.93914 C95.6540974,235.79985 101.88699,224.348494 112.293953,219 L89.8538035,219 C88.8511586,220.630127 89.1636713,222.686574 90.6510003,223.737196 L90.653894,223.737196 Z" id="Path" fill="#1D2E3B" fill-rule="nonzero"></path>
                <path d="M249.276519,227.339032 C218.963239,227.351609 188.648427,227.37257 158.335147,227.339032 C147.922995,227.327853 142.8371,223.722509 143.003976,216.673921 C143.170852,209.633719 148.328703,206.043746 158.743917,206.038156 C219.075,206.004618 279.404552,206.021387 339.735634,206.026977 C341.220679,206.026977 342.740936,205.912389 344.183113,206.15554 C351.256212,207.346142 355.602646,210.987819 354.93208,217.849152 C354.308974,224.235362 349.922734,227.33484 342.890971,227.332045 C311.685133,227.322263 280.479295,227.327853 249.274988,227.34043 L249.276519,227.339032 Z" id="Path" fill="#1D2E3B" fill-rule="nonzero"></path>
                <path d="M249.276519,270.981889 C218.963239,270.994466 188.648427,271.015428 158.335147,270.981889 C147.922995,270.97071 142.8371,267.365366 143.003976,260.316779 C143.170852,253.276576 148.328703,249.686603 158.743917,249.681014 C219.075,249.647476 279.404552,249.664245 339.735634,249.669834 C341.220679,249.669834 342.740936,249.555246 344.183113,249.798397 C351.256212,250.988999 355.602646,254.630676 354.93208,261.492009 C354.308974,267.878219 349.922734,270.977697 342.890971,270.974902 C311.685133,270.96512 280.479295,270.97071 249.274988,270.983287 L249.276519,270.981889 Z" id="Path" fill="#1D2E3B" fill-rule="nonzero"></path>
                <rect id="Rectangle" fill="#FFFFFF" x="77" y="59" width="242" height="22"></rect>
                <rect id="Rectangle" fill="#1D2E3B" x="59" y="60" width="32" height="20" rx="10"></rect>
                <rect id="Rectangle" fill="#1D2E3B" x="303" y="60" width="32" height="20" rx="10"></rect>
                <g id="Click-hat" transform="translate(94.000000, 0.000000)" stroke="#1D2E3B" stroke-width="11.2">
                    <g id="Group">
                        <path d="M46.2839201,86.6977503 L46.2839201,114.130614 C46.2839201,118.505821 48.6576594,122.513765 52.4860133,124.629513 L52.9096099,124.869032 C68.6865842,133.563557 86.1339676,137.906828 103.581351,137.906828 C109.144053,137.906828 114.698763,137.46771 120.181541,136.581491" id="Path"></path>
                        <path d="M87.2839201,86.6977503 L87.4413416,114.026287 C87.4413416,118.401494 89.1335395,122.513765 92.9618934,124.629513 L93.38549,124.869032 C109.162464,133.563557 126.609848,137.906828 144.057231,137.906828 C149.619933,137.906828 155.174643,137.46771 160.657422,136.581491" id="Path" transform="translate(123.970671, 112.302289) scale(-1, 1) translate(-123.970671, -112.302289) "></path>
                        <line x1="160.5" y1="112.5" x2="160.814843" y2="74.8735153" id="Path"></line>
                        <path d="M22.2588011,64.46244 L95.1311351,95.1624982 C100.507867,97.4276375 106.572257,97.4213567 111.944286,95.145085 L201.385692,57.2463787 C204.566369,55.8986413 206.639782,52.7872258 206.659182,49.3328483 C206.67854,45.8858164 204.623062,42.7653285 201.448408,41.4222057 L111.965148,3.5638983 C106.580738,1.28587834 100.502867,1.28783043 95.1199216,3.56930865 L5.32561048,41.6272375 C2.23942903,42.9352677 0.205721746,45.929923 0.127878211,49.2809526 L0.105261151,50.2545779 C0.0412638836,53.0095496 1.60729621,55.543306 4.10009515,56.7180052 L7.72784081,58.4275333 C8.04269447,58.5759041 8.3610884,58.7166428 8.68274365,58.8496262" id="Path"></path>
                        <polyline id="Path" points="101.655186 30.4268465 16.2165557 66.6420593 16.6401522 111.703492"></polyline>
                        <path d="M16.9278782,111.671557 L16.6601332,111.671557 L0.143862988,152.597302 L1.15889629,153.483521 C10.3980971,161.507394 24.232921,161.172068 33.06451,152.709077 L33.1764034,152.597302 L17.3001375,113.324931 L16.9278782,111.671557 Z" id="Path"></path>
                    </g>
                </g>
            </g>
        </g>
    </g>
</svg>