<?xml version="1.0" encoding="UTF-8"?>
<svg width="356px" height="356px" viewBox="0 0 356 356" version="1.1" xmlns="http://www.w3.org/2000/svg" xmlns:xlink="http://www.w3.org/1999/xlink">
    <title>Proven templates</title>
    <g id="Page-1" stroke="none" stroke-width="1" fill="none" fill-rule="evenodd">
        <g id="Branded" transform="translate(-234.000000, -223.000000)">
            <g id="Proven-templates" transform="translate(243.000000, 232.000000)">
                <rect id="Rectangle" stroke="#1D2E3B" stroke-width="16.1" x="0" y="0" width="338" height="338" rx="7"></rect>
                <line x1="0" y1="48.2857143" x2="338" y2="48.2857143" id="Path" stroke="#1D2E3B" stroke-width="16.1"></line>
                <circle id="Oval" fill="#1D2E3B" cx="39.2971014" cy="23.5" r="7.29710145"></circle>
                <circle id="Oval" fill="#1D2E3B" cx="58.5" cy="23.5" r="7.29710145"></circle>
                <circle id="Oval" fill="#1D2E3B" cx="77.7028986" cy="23.5" r="7.29710145"></circle>
                <path d="M108.184006,191.987726 C110.625379,188.289158 115.289066,186.228754 119.063828,187.66691 C122.83859,189.105065 127.060989,186.971642 128.492795,182.892106 C129.930951,178.81257 128.026109,174.352065 124.251347,172.917084 C120.476586,171.475754 118.43523,167.104142 119.047954,163.021431 C119.660679,158.941895 123.289402,155.541752 127.492753,155.475083 C131.692929,155.402064 135.039102,151.817786 134.966083,147.465223 C134.893064,143.122183 131.429426,139.649022 127.22925,139.718866 C123.029074,139.78871 119.181293,136.413965 118.339988,132.223313 C118.092359,130.985166 118.130456,129.686699 118.359037,128.419979 C118.905091,125.540493 120.632148,122.949908 123.13384,121.860973 C126.705419,120.299003 128.210244,115.654364 126.492711,111.479585 C124.772004,107.311157 120.359121,105.193607 116.63198,106.755578 C114.663643,107.577834 112.457202,107.571485 110.488865,106.933363 C108.838002,106.171426 107.320478,104.984075 106.199796,103.444328 C104.460041,101.060101 103.786996,98.0694989 104.383847,95.4249434 L68.3124919,95.4249434 C85.0814496,104.399923 101.031325,122.50227 101.431342,146.458831 C101.866281,172.574213 88.0910997,193.489376 67.829932,203.489796 L108.634819,203.489796 C105.698188,200.524592 105.771207,195.635498 108.180832,191.994075 L108.184006,191.987726 Z" id="Path" fill="#CDD1D4" fill-rule="nonzero"></path>
                <path d="M221.312226,105.828555 C224.775863,108.279451 225.47113,113.203467 223.620259,117.222684 C221.769388,121.245075 217.480319,123.991222 213.530947,123.149916 C209.5784,122.302262 205.733794,125.054758 204.933761,129.30573 C204.130552,133.553528 206.695739,137.674336 210.645111,138.52199 C214.597658,139.36647 217.28031,143.382512 217.293009,147.506494 C217.312058,151.630477 214.242088,155.548101 210.095882,156.252893 C205.9592,156.964034 203.194005,161.018172 203.930544,165.304066 C204.663908,169.593135 208.61328,172.494844 212.759486,171.780529 C216.899342,171.069388 221.220158,173.821884 222.686887,177.831576 C223.118651,179.022102 223.283737,180.31422 223.25199,181.593639 C223.150398,184.53027 221.836057,187.349436 219.537548,188.809815 C216.245346,190.901966 215.458012,195.721216 217.794618,199.588045 C218.781961,201.21351 220.337582,202.572297 222.055114,203.486621 L270.346029,203.486621 C254.980305,195.873603 240.722564,181.558717 237.233529,161.192783 C232.284115,132.328079 245.960879,107.171468 268.796758,95.4217687 L219.556596,95.4217687 C217.356504,99.0028714 218.042247,103.520521 221.305876,105.828555 L221.312226,105.828555 Z" id="Path" fill="#CDD1D4" fill-rule="nonzero"></path>
                <rect id="Rectangle" stroke="#1D2E3B" stroke-width="16.1" x="40.2380952" y="88.5238095" width="257.52381" height="120.714286"></rect>
                <polyline id="Path" stroke="#1D2E3B" stroke-width="16.1" points="40.2380952 321.904762 40.2380952 249.47619 152.904762 249.47619 152.904762 321.904762"></polyline>
                <polyline id="Path" stroke="#1D2E3B" stroke-width="16.1" points="185.095238 321.904762 185.095238 249.47619 297.761905 249.47619 297.761905 321.904762"></polyline>
            </g>
        </g>
    </g>
</svg>