<?xml version="1.0" encoding="UTF-8"?>
<svg width="453px" height="348px" viewBox="0 0 453 348" version="1.1" xmlns="http://www.w3.org/2000/svg" xmlns:xlink="http://www.w3.org/1999/xlink">
    <title>Shopping Cart</title>
    <g id="Page-1" stroke="none" stroke-width="1" fill="none" fill-rule="evenodd">
        <g id="Branded" transform="translate(-1223.000000, -227.000000)">
            <g id="Shopping-Cart" transform="translate(1231.000000, 235.000000)">
                <path d="M272.65812,287.235955 L257.717949,302.157303 L183.017094,302.157303 L168.076923,287.235955 L0,287.235955 L0,313.348315 C0,323.644045 8.36649573,332 18.6752137,332 L418.324786,332 C428.633504,332 437,323.644045 437,313.348315 L437,287.235955 L272.65812,287.235955 Z" id="Path" stroke="#1D2E3B" stroke-width="14.95"></path>
                <path d="M407.119658,257.393258 L409.028182,20.7504142 C409.119865,9.38233014 399.978536,0.0923529577 388.610452,0.00066941492 C388.555117,0.000223140121 388.499781,1.37281123e-16 388.444444,0 C388.444444,0 388.444444,0 388.444444,0 L48.5555556,0 C48.5555556,0 48.5555556,0 48.5555556,0 C38.2415198,1.89465762e-15 29.8803419,8.36117796 29.8803419,18.6752137 L29.8803419,257.393258 L29.8803419,257.393258" id="Path" stroke="#1D2E3B" stroke-width="14.95"></path>
                <circle id="Oval" fill="#1D2E3B" cx="66.2971014" cy="24.2971014" r="7.29710145"></circle>
                <circle id="Oval" fill="#1D2E3B" cx="85.5" cy="24.2971014" r="7.29710145"></circle>
                <circle id="Oval" fill="#1D2E3B" cx="104.702899" cy="24.2971014" r="7.29710145"></circle>
                <g id="Group" transform="translate(28.978632, 48.851685)">
                    <path d="M156,193.5 C156,197.097484 153.083857,200 149.5,200 C145.916143,200 143,197.083857 143,193.5 C143,189.916143 145.916143,187 149.5,187 C153.083857,187 156,189.916143 156,193.5 Z" id="Path" stroke="#1D2E3B" stroke-width="13.455"></path>
                    <polyline id="Path" stroke="#1D2E3B" stroke-width="13.455" points="268 161 140.087971 161 114.572711 36 81 37.503275"></polyline>
                    <path d="M142.143336,55 L264.415069,55 C271.733915,55 277.226407,61.7326733 275.762638,68.9231683 L266.72487,113.695446 C265.637115,119.108515 260.883222,123 255.377301,123 L137,123" id="Path" stroke="#1D2E3B" stroke-width="13.455"></path>
                    <path d="M181.244842,116.868739 C182.772124,114.575634 185.68965,113.298187 188.051079,114.189841 C190.412507,115.081495 193.05397,113.758777 193.949685,111.229472 C194.849371,108.700167 193.657733,105.934663 191.296305,105.044978 C188.934877,104.151356 187.657838,101.440965 188.041148,98.9096918 C188.424458,96.3803872 190.694528,94.2723053 193.324075,94.2309704 C195.951636,94.1856988 198.044946,91.9634537 197.999266,89.2648726 C197.953587,86.5721966 195.786793,84.4188431 193.159232,84.4621464 C190.531671,84.5054496 188.124563,82.4131144 187.598256,79.8149182 C187.443344,79.0472693 187.467176,78.2422222 187.610173,77.4568583 C187.951776,75.6715826 189.032194,74.065425 190.597211,73.3902876 C192.831531,72.421869 193.772925,69.5422016 192.698465,66.9538471 C191.622019,64.3694292 188.861392,63.0565528 186.529755,64.0249714 C185.298396,64.5347689 183.918082,64.5308323 182.686724,64.1351979 C181.653971,63.6627986 180.704633,62.926643 180.003553,61.9720027 C178.915191,60.4937865 178.494145,58.6396193 178.867525,57 L156.301882,57 C166.792264,62.5644702 176.770243,73.7878904 177.020487,88.6409119 C177.292577,104.832398 168.675052,117.799759 156,124 L181.526863,124 C179.689755,122.161579 179.735434,119.13035 181.242856,116.872675 L181.244842,116.868739 Z" id="Path" fill="#1D2E3B" fill-rule="nonzero"></path>
                    <path d="M220.784208,63.4521872 C222.918584,64.9717383 223.347024,68.0246188 222.206473,70.5165252 C221.065923,73.0103998 218.422897,74.7130057 215.9892,74.1913981 C213.553547,73.6658539 211.18441,75.3723964 210.69141,78.0079908 C210.196454,80.641617 211.777183,83.1965099 214.21088,83.7220541 C216.646533,84.24563 218.299647,86.735568 218.307472,89.2924293 C218.31921,91.8492905 216.427422,94.2782103 213.872432,94.7151796 C211.323311,95.1560857 209.619332,97.6696436 210.073204,100.32689 C210.525121,102.986104 212.958817,104.785158 215.513808,104.342284 C218.064885,103.901378 220.727474,105.60792 221.631307,108.093922 C221.89737,108.832046 221.9991,109.633156 221.979537,110.426393 C221.916934,112.247099 221.107006,113.994976 219.69061,114.900408 C217.661877,116.197538 217.176703,119.185464 218.616575,121.58289 C219.224999,122.590675 220.18361,123.433121 221.241994,124 L251,124 C241.531277,119.279944 232.745319,110.404742 230.595293,97.7779018 C227.545346,79.8818414 235.973293,64.284791 250.045302,57 L219.702348,57 C218.346599,59.2202767 218.76917,62.021211 220.780296,63.4521872 L220.784208,63.4521872 Z" id="Path" fill="#1D2E3B" fill-rule="nonzero"></path>
                    <path d="M261,193.5 C261,197.097484 258.083857,200 254.5,200 C250.916143,200 248,197.083857 248,193.5 C248,189.916143 250.916143,187 254.5,187 C258.083857,187 261,189.916143 261,193.5 Z" id="Path" stroke="#1D2E3B" stroke-width="13.455"></path>
                    <line x1="0.521367521" y1="0.648314607" x2="380.521368" y2="0.648314607" id="Line" stroke="#1D2E3B" stroke-width="12" stroke-linecap="square"></line>
                </g>
            </g>
        </g>
    </g>
</svg>